<svg xmlns="http://www.w3.org/2000/svg" xmlns:xlink="http://www.w3.org/1999/xlink" version="1.1" x="0px" y="0px" viewBox="0 0 100 125" style="enable-background:new 0 0 100 100;" xml:space="preserve"><path d="M72.567749,56.394043c-2.7362671-2.6268921-5.8665161-4.0199585-8.7241821-4.7484741  c1.7265625-1.6010742,3.1960449-3.5053101,4.3575439-5.6361694c0.3841553,0.0917969,0.7817993,0.1419678,1.1898804,0.1419678  c3.1611328,0,5.7324219-2.8984375,5.7324219-6.4614258c0-3.0117188-1.840332-5.5414429-4.3185425-6.2539673  c0.0914307-0.7161865,0.15448-1.440918,0.15448-2.1815796c0-10.4125977-8.4716797-18.8837891-18.8837891-18.8837891h-4.1513672  c-10.4121094,0-18.883791,8.4711914-18.883791,18.8837891c0,0.7406616,0.0630493,1.4653931,0.15448,2.1815796  c-2.4783325,0.7125244-4.3190308,3.2422485-4.3190308,6.2539673c0,3.5629883,2.5717773,6.4614258,5.7329102,6.4614258  c0.4215698,0,0.8314819-0.0551147,1.227356-0.1528931c1.1534443,2.1358032,2.6360493,4.02948,4.3627338,5.6360474  c-2.8691406,0.7252808-6.0166035,2.1190796-8.765871,4.7595215c-5.8847656,5.6503906-8.0556641,15.1328125-6.4526367,28.1845703  c0.2143555,1.7392578,1.7070313,3.0507813,3.4716797,3.0507813h51.0961914c1.765625,0,3.2578125-1.3115234,3.4716797-3.0517578  C80.6224365,71.5268555,78.4515381,62.0444336,72.567749,56.394043z M70.9281006,37.2114258  c0.0126953-0.1240845,0.0014038-0.2484131,0.0065918-0.3728027c0.7167358,0.6245117,1.1887207,1.6687012,1.1887207,2.8513184  c0,1.8460693-1.1494751,3.3455811-2.5880737,3.4429321C70.2348633,41.2752686,70.7150269,39.291626,70.9281006,37.2114258z   M27.8758526,39.6899414c0-1.2227173,0.5064087-2.2935181,1.2645264-2.9093018  c0.1858521,2.2392578,0.670166,4.3731079,1.4154663,6.3639526C29.0739117,43.1078491,27.8758526,41.5756836,27.8758526,39.6899414z   M47.9241943,15.3706055h4.1513672c8.5197754,0,15.4735718,6.7470703,15.8479004,15.1757202  c-1.7553711-1.8776855-3.9498901-3.4628296-6.4973145-4.649353c-0.4316406-0.2011719-0.8496094-0.4404297-1.2412109-0.7094727  c-1.6269531-1.1191406-3.6660156-1.2836914-5.3183594-0.4267578c-3.2597656,1.6870117-10.6210938,1.9677734-13.1914063,1.9428711  c-3.6348877,0-7.0194092,1.296936-9.5858765,3.5862427C32.59198,21.9813232,39.4909668,15.3706055,47.9241943,15.3706055z   M32.0408936,35.3588867c0.0561523-0.4467773,0.3598633-1.0078125,0.9018555-1.668457  c2.0800781-2.5336914,5.2626953-3.9868164,8.7128906-3.9868164c0.4150391,0.0043945,9.9960938,0.0996094,14.5898438-2.2788086  c0.6669922-0.3452148,1.5253906-0.2563477,2.2392578,0.2348633c0.5292969,0.3637695,1.0927734,0.6850586,1.6738281,0.956543  c3.1445313,1.4643555,5.6630859,3.5961914,7.2832031,6.1650391c0.3994141,0.6333008,0.5771484,1.3876953,0.5019531,2.1245117  c-1.0068359,9.8295898-8.7021484,17.2421875-17.9013672,17.2421875  C40.2318115,54.1479492,32.34021,45.9023438,32.0408936,35.3588867z M55.949707,56.2496338  c-1.708313,1.9472046-3.7873535,3.0623779-5.9493408,3.0623779c-2.1708984,0-4.2575684-1.1237183-5.9696045-3.0848999  c1.9028931,0.5949097,3.9182739,0.9208374,6.0115967,0.9208374C52.0901489,57.1479492,54.0720825,56.8324585,55.949707,56.2496338z   M76.0413818,84.2124023c-0.0283203,0.2333984-0.2451172,0.4169922-0.4931641,0.4169922h-6.0478516V66.9916992  c0-0.828125-0.671875-1.5-1.5-1.5s-1.5,0.671875-1.5,1.5v17.6376953H33.4993896V66.9916992c0-0.828125-0.6708984-1.5-1.4995136-1.5  c-0.8286133,0-1.5,0.671875-1.5,1.5v17.6376953h-6.0478516c-0.2524414,0-0.4648438-0.1796875-0.4941406-0.4169922  c-1.4794922-12.0449219,0.3813477-20.6689453,5.5307617-25.6328125c3.0125751-2.9039307,6.6939716-4.0401611,9.659914-4.4495239  c0.0114136,0.0285645,0.0172119,0.0580444,0.0305176,0.0862427c2.3925781,5.0693359,6.4384766,8.0957031,10.8212891,8.0957031  c4.3818359,0,8.4277344-3.0263672,10.8203125-8.0957031c0.0148315-0.0314331,0.0216064-0.06427,0.0340576-0.0961304  c2.9523926,0.4066162,6.616272,1.5401611,9.6348877,4.4379272C75.6556396,63.519043,77.5238037,72.1499023,76.0413818,84.2124023z   M54.536499,66.809082c-1.5244141-0.2851563-3.1298828,0.1708984-4.4091797,1.2490234l-0.1279297,0.1083984l-0.125-0.1064453  c-1.2783203-1.078125-2.8886719-1.5322266-4.4072266-1.2509766c-1.1621094,0.2158203-2.1767578,0.7851563-2.9355469,1.6455078  c-1.8330078,2.078125-1.7724609,5.1494141,0.1396484,7.1455078c0.0263672,0.0273438,0.0546875,0.0537109,0.0830078,0.0800781  l5.4589844,4.8837891c0.5097656,0.4570313,1.1484375,0.6855469,1.7871094,0.6855469  c0.6376953,0,1.2763672-0.2275391,1.7841797-0.6835938l5.4609375-4.8857422  c0.0283203-0.0263672,0.0566406-0.0527344,0.0830078-0.0800781c1.9130859-1.9960938,1.9726563-5.0683594,0.1396484-7.1455078  C56.7113037,67.5961914,55.6976318,67.0268555,54.536499,66.809082z M55.1966553,73.4868164l-5.1962891,4.6503906  l-5.1972656-4.6503906c-0.7910156-0.8603516-0.8027344-2.1621094-0.0214844-3.0478516  c0.3925781-0.4453125,0.8886719-0.6162109,1.234375-0.6806641c0.6220703-0.1171875,1.3447266,0.1054688,1.9238281,0.5957031  l1.0791016,0.9091797c0.5410156,0.4550781,1.4208984,0.4550781,1.9619141,0l1.0800781-0.9111328  c0.5810547-0.4873047,1.3027344-0.7099609,1.9238281-0.59375c0.3457031,0.0644531,0.8408203,0.2353516,1.2333984,0.6806641  C55.9993896,71.324707,55.9876709,72.6264648,55.1966553,73.4868164z M54.7221069,36.3146362  c0-1.2558594,1.0219727-2.2773438,2.277832-2.2773438s2.277832,1.0214844,2.277832,2.2773438  c0,1.2563477-1.0219727,2.2783203-2.277832,2.2783203S54.7221069,37.5709839,54.7221069,36.3146362z M40.7221069,36.3146362  c0-1.2558594,1.0219727-2.2773438,2.277832-2.2773438s2.277832,1.0214844,2.277832,2.2773438  c0,1.2563477-1.0219727,2.2783203-2.277832,2.2783203S40.7221069,37.5709839,40.7221069,36.3146362z M55.1448975,42.5927734  H44.855835c-0.828125,0-1.5,0.6713867-1.5,1.5c0,3.8413086,2.9804688,6.9672852,6.6445313,6.9672852  s6.6445313-3.1259766,6.6445313-6.9672852C56.6448975,43.2641602,55.9730225,42.5927734,55.1448975,42.5927734z   M50.0003662,48.0600586c-1.5224609,0-2.8291016-1.0209961-3.3740234-2.4672852h6.7480469  C52.8294678,47.0390625,51.5228271,48.0600586,50.0003662,48.0600586z"/>
<!-- <text x="0" y="115" fill="#000000" font-size="5px" font-weight="bold" font-family="'Helvetica Neue', Helvetica, Arial-Unicode, Arial, Sans-serif">Created by Llisole</text><text x="0" y="120" fill="#000000" font-size="5px" font-weight="bold" font-family="'Helvetica Neue', Helvetica, Arial-Unicode, Arial, Sans-serif">from the Noun Project</text> -->
</svg>