<svg xmlns="http://www.w3.org/2000/svg" viewBox="0 0 512 640" x="0px" y="0px"><g><path d="M493.394,186.09229l-184-168A7.99851,7.99851,0,0,0,304,16H216v.00891c-.06671-.00049-.13287-.00763-.19971-.00647a7.99838,7.99838,0,0,0-5.73242,2.63037l-152,168a7.9992,7.9992,0,0,0,.27539,11.02393L72.9165,212.23l-55.666,87.4751a8.00123,8.00123,0,0,0-1.09522,5.86377l15.96485,79.8247L48.09326,489.21631A7.99937,7.99937,0,0,0,56,496h96a7.99977,7.99977,0,0,0,8-8V446.24609l57.94043-14.48486a7.99977,7.99977,0,0,0,5.21484-4.18359L252.94409,368H328a7.99946,7.99946,0,0,0,5.793-2.48291l160-168a7.99933,7.99933,0,0,0-.39893-11.4248ZM467.37354,184H387.31348l-152-152h65.584ZM216.29,35.60352,372.96191,192.27588,231.71,348.39648,75.03809,191.72412ZM181.67188,375.01465,141.80518,363.624A31.82086,31.82086,0,0,0,144,352V312a7.9994,7.9994,0,0,0-3.56252-6.65625L121.07861,292.438a26.38974,26.38974,0,0,0-34.43365,4.49l20.277-50.69251L208.68652,348ZM128,320H96v-5.57764a10.42227,10.42227,0,0,1,16.20361-8.67187L128,316.28174ZM96,336h32v16a16,16,0,0,1-32,0ZM94.61316,233.92664l-5.85645,14.64111L75.21887,238.41443l9.28748-14.59461ZM210.49023,417.13135l-60.43066,15.10742A8.00059,8.00059,0,0,0,144,440v40H62.86328L47.90674,382.78369c-.01807-.11816-.03858-.23535-.062-.35254L32.4751,305.583l34.1286-53.6305L82.603,263.952l-18.0307,45.07678a7.99766,7.99766,0,0,0,0,5.94238L80.04181,353.645a31.9744,31.9744,0,0,0,51.48285,23.68237l50.27759,14.365a8.00074,8.00074,0,0,0,7.85449-2.03564l8.58319-8.58325,23.29169,13.97509Zm18.218-36.436-18.80633-11.28369L220,359.31348l6.34326,6.34326A7.99793,7.99793,0,0,0,231.99951,368h3.0564ZM324.57129,352h-74.545l137.5238-152h81.78308Z"/></g>
<!-- <text x="0" y="527" fill="#000000" font-size="5px" font-weight="bold" font-family="'Helvetica Neue', Helvetica, Arial-Unicode, Arial, Sans-serif">Created by ArmOkay</text><text x="0" y="532" fill="#000000" font-size="5px" font-weight="bold" font-family="'Helvetica Neue', Helvetica, Arial-Unicode, Arial, Sans-serif">from the Noun Project</text> -->
</svg>