<svg xmlns="http://www.w3.org/2000/svg" xmlns:xlink="http://www.w3.org/1999/xlink" xml:space="preserve" version="1.1" style="shape-rendering:geometricPrecision;text-rendering:geometricPrecision;image-rendering:optimizeQuality;" viewBox="0 0 406 636.25" x="0px" y="0px" fill-rule="evenodd" clip-rule="evenodd"><defs><style type="text/css">
   
    .fil0 {fill:black;fill-rule:nonzero}
   
  </style></defs><g><path class="fil0" d="M134 384l-10 -48c-2,-6 -4,-11 -6,-16 -3,-5 -7,-10 -11,-14 -15,-13 -27,-29 -35,-48 -7,-17 -12,-37 -12,-57 0,-39 16,-75 42,-101 26,-26 62,-42 101,-42 40,0 75,16 101,42 26,26 42,62 42,101 0,20 -4,40 -12,57 -8,19 -20,35 -34,48 -5,4 -8,9 -11,14 -3,5 -5,10 -6,17l0 0 -11 46c1,1 3,2 4,4 5,5 8,11 8,19l0 0 0 0 0 0 0 0 0 0 0 0 0 0c0,8 -3,15 -8,20 0,0 0,1 -1,1 1,0 1,0 1,1 5,5 8,12 8,19l0 0 0 0 0 0c0,8 -3,15 -8,20 -5,5 -12,8 -19,8l-7 0c-3,9 -8,17 -15,23 -9,7 -20,11 -32,11 -12,0 -23,-4 -31,-11 -7,-6 -13,-14 -16,-23l-7 0c-7,0 -14,-3 -19,-8 -4,-5 -7,-12 -7,-20l0 0c0,-7 3,-14 7,-19 1,-1 1,-1 1,-1 0,0 0,-1 -1,-1 -4,-5 -7,-12 -7,-20l0 0 0 0c0,-7 3,-14 7,-19 1,-1 3,-3 4,-3zm34 76l70 0 6 0 3 0 10 0c3,0 6,-1 8,-3 2,-3 3,-6 3,-10l0 0 0 0 0 0c0,-3 -1,-7 -3,-9 -2,-2 -5,-3 -8,-3 0,0 0,0 0,0l0 0 0 0 0 0 0 0 0 -1 -108 0 0 1c-3,0 -5,1 -7,3 -3,2 -4,6 -4,9l0 0c0,4 1,7 4,10 2,2 4,3 7,3l13 0 6 0zm66 15l-61 0c2,5 5,8 8,11 6,5 14,8 22,8 8,0 16,-3 22,-8 3,-3 6,-6 9,-11zm-85 -56c0,0 0,0 0,0l13 0 0 0 95 0 0 0c3,0 6,-1 8,-3 2,-3 3,-6 3,-9l0 -1 0 0 0 0c0,-3 -1,-7 -3,-9 -2,-2 -5,-3 -8,-3l0 0 -108 0 0 0c-3,0 -5,1 -7,3 -2,2 -4,5 -4,9l0 0 0 0c0,4 1,7 4,10 2,2 4,3 7,3zm108 -41l10 -45c1,0 1,0 1,0 1,-8 4,-15 7,-21 4,-6 9,-12 14,-17 13,-12 24,-27 31,-43 7,-15 11,-33 11,-51 0,-35 -15,-67 -38,-90 -23,-23 -55,-37 -90,-37 -35,0 -67,14 -90,37 -23,23 -37,55 -37,90 0,18 4,36 10,51 8,16 18,31 31,43 6,5 10,11 14,17 4,7 6,14 8,21l9 45c1,0 1,0 1,0l0 0 24 0 0 -155 -8 0c-7,0 -12,-2 -17,-6 -4,-5 -6,-10 -6,-17l0 0c0,-6 2,-12 6,-16 5,-5 10,-7 17,-7l0 0c6,0 12,2 16,7 5,4 7,10 7,16l0 8 30 0 0 -8c0,-6 3,-12 7,-16 4,-5 10,-7 17,-7l0 0c6,0 12,2 16,7 4,4 7,10 7,16l0 0c0,7 -3,12 -7,17 -4,4 -10,6 -16,6l-8 0 0 155 23 0 0 0 0 0zm-69 0l30 0 0 -155 -30 0 0 155zm7 -370c0,-5 4,-8 8,-8 4,0 8,3 8,8l0 18c0,4 -4,7 -8,7 -4,0 -8,-3 -8,-7l0 -18zm-146 312c-4,3 -9,2 -11,-1 -3,-4 -2,-8 1,-11l15 -11c3,-2 8,-2 11,2 2,3 1,8 -2,11l-14 10zm-41 -97c-4,0 -8,-3 -8,-7 0,-4 3,-8 7,-8l18 -2c4,0 8,3 8,7 1,4 -2,8 -7,8l-18 2zm18 -104c-4,-2 -6,-7 -4,-11 2,-3 7,-5 10,-3l17 8c3,2 5,7 3,10 -2,4 -7,6 -10,4l-16 -8zm69 -80c-2,-4 -1,-8 2,-10 4,-3 9,-2 11,2l9 15c3,4 1,9 -2,11 -4,2 -9,1 -11,-3l-9 -15zm272 269c3,3 4,7 2,11 -3,3 -8,4 -11,1l-15 -10c-3,-3 -4,-8 -1,-11 2,-4 7,-4 11,-2l14 11zm32 -100c5,0 8,4 7,8 0,4 -4,7 -8,7l-18 -2c-4,0 -7,-4 -7,-8 0,-4 4,-7 8,-7l18 2zm-25 -103c4,-2 8,0 10,3 2,4 1,9 -3,11l-16 8c-4,2 -9,0 -11,-4 -1,-3 0,-8 4,-10l16 -8zm-75 -74c2,-4 7,-5 10,-2 4,2 5,6 3,10l-10 15c-2,4 -7,5 -10,3 -4,-2 -5,-7 -3,-11l10 -15zm-65 177l8 0c2,0 4,-1 5,-2 2,-2 2,-4 2,-6l0 0c0,-2 0,-4 -2,-5 -1,-2 -3,-3 -5,-3l0 0c-3,0 -5,1 -6,3 -1,1 -2,3 -2,5l0 8zm-69 0l8 0 0 -8c0,-2 -1,-4 -3,-5 -1,-2 -3,-3 -5,-3l0 0c-2,0 -4,1 -6,3 -1,1 -2,3 -2,5l0 0c0,2 1,4 2,6 2,1 4,2 6,2z"/></g>
  <!-- <text x="0" y="524" fill="#000000" font-size="5px" font-weight="bold" font-family="'Helvetica Neue', Helvetica, Arial-Unicode, Arial, Sans-serif">Created by popcornarts</text><text x="0" y="529" fill="#000000" font-size="5px" font-weight="bold" font-family="'Helvetica Neue', Helvetica, Arial-Unicode, Arial, Sans-serif">from the Noun Project</text> -->
  </svg>