<svg xmlns="http://www.w3.org/2000/svg" xmlns:xlink="http://www.w3.org/1999/xlink" version="1.1" x="0px" y="0px" viewBox="0 0 100 125" style="enable-background:new 0 0 100 100;" xml:space="preserve"><path d="M87.54,59.11C87.54,59.11,87.53,59.11,87.54,59.11l-9.92-5.74l7.51-4.24c1.07-0.61,1.89-1.64,2.3-2.97  c0.33-1.23,0.19-2.55-0.47-3.79c-0.59-0.99-1.46-1.7-2.44-2.09c0.72-0.65,1.26-1.5,1.51-2.45c0.3-1.25,0.1-2.6-0.51-3.64  c-0.61-1.14-1.63-1.96-2.89-2.33c-1.15-0.33-2.36-0.24-3.44,0.26c0.17-1.09-0.04-2.18-0.6-3.13c-0.66-1.14-1.72-1.95-2.97-2.29  c-1.13-0.31-2.31-0.2-3.35,0.29c0.15-1.08-0.07-2.18-0.6-3.07c-0.64-1.18-1.71-2.03-2.99-2.39c-1.27-0.34-2.59-0.19-3.72,0.46  l-2.6,1.47l-0.1-0.22l-0.03-10c0-0.14-0.05-0.26-0.08-0.39c-0.02-0.1-0.02-0.2-0.06-0.29c-0.04-0.1-0.12-0.18-0.19-0.28  c-0.06-0.09-0.11-0.2-0.19-0.28c-0.06-0.06-0.15-0.09-0.22-0.15c-0.11-0.08-0.21-0.18-0.34-0.23c-0.21-0.09-0.44-0.14-0.68-0.14  c0,0,0,0-0.01,0H41.29h0c-0.24,0-0.47,0.05-0.68,0.14c-0.41,0.17-0.73,0.5-0.91,0.9c-0.01,0.01-0.02,0.02-0.02,0.03  c-0.06,0.14-0.07,0.3-0.09,0.45c-0.01,0.08-0.05,0.15-0.05,0.24L39.49,24.7l-7.44-4.39c-1.1-0.6-2.37-0.77-3.74-0.47  c-1.2,0.32-2.22,1.07-3,2.27c-0.57,1-0.75,2.13-0.57,3.2c-0.93-0.32-1.92-0.36-2.84-0.12c-1.25,0.34-2.31,1.17-2.97,2.3  c-0.66,1.09-0.86,2.38-0.55,3.64c0.28,1.15,0.96,2.15,1.92,2.85c-1,0.39-1.81,1.11-2.37,2.09c-0.67,1.12-0.85,2.43-0.53,3.69  c0.3,1.15,0.99,2.13,1.96,2.79c-1,0.42-1.85,1.16-2.37,2.07c-0.7,1.16-0.9,2.5-0.57,3.79c0.32,1.26,1.12,2.32,2.24,2.98l2.57,1.51  l-0.15,0.2l-8.61,5.01c-0.09,0.05-0.15,0.13-0.22,0.2c-0.66,0.54-0.87,1.46-0.43,2.22l9.6,16.63c0.32,0.56,0.92,0.88,1.52,0.88  c0.3,0,0.6-0.08,0.88-0.24c0.02-0.01,0.03-0.03,0.04-0.04l9.9-5.67l-0.09,8.61c0,1.27,0.5,2.5,1.43,3.5  c0.89,0.89,2.1,1.41,3.47,1.47c1.15,0,2.22-0.41,3.06-1.09c0.2,0.95,0.66,1.84,1.33,2.51c0.91,0.91,2.18,1.43,3.46,1.43c0,0,0,0,0,0  c0.03,0,0.07,0,0.1,0c1.28,0,2.48-0.5,3.4-1.4c0.82-0.82,1.33-1.88,1.44-3.04c0.85,0.67,1.9,1.03,3.02,1.03  c2.57,0,4.68-1.99,4.88-4.48c0.85,0.66,1.92,1.03,2.98,1.03c0.03,0,0.07,0,0.1,0c1.31,0,2.53-0.5,3.45-1.4  c0.93-0.92,1.45-2.15,1.45-3.45l0.04-3.11l8.9,5.1c0.01,0,0.01,0.01,0.01,0.01c0.28,0.16,0.58,0.23,0.88,0.23  c0.3,0,0.61-0.08,0.87-0.23c0.02-0.01,0.02-0.03,0.04-0.04c0.25-0.15,0.47-0.35,0.62-0.61l9.58-16.63  C88.67,60.68,88.38,59.6,87.54,59.11z M83.9,44.09c0.2,0.38,0.25,0.77,0.17,1.08c-0.08,0.24-0.26,0.67-0.66,0.9l-9.31,5.25  l-0.28-0.16c-0.16-0.96-0.4-1.8-0.64-2.52l8.86-4.99C82.69,43.28,83.55,43.51,83.9,44.09z M80.55,35.4c0.35-0.2,0.74-0.25,1.11-0.14  c0.33,0.09,0.6,0.31,0.79,0.67c0.27,0.45,0.2,0.91,0.17,1.04c-0.09,0.34-0.37,0.68-0.68,0.86L71.2,43.9l-1.11-2.59L80.55,35.4z   M73.66,30.25c0.32-0.19,0.68-0.25,1.04-0.14c0.35,0.1,0.66,0.33,0.86,0.68c0.19,0.32,0.22,0.65,0.11,1.04  c-0.1,0.34-0.37,0.69-0.62,0.86l-6.98,3.93l-1.11-2.59L73.66,30.25z M66.72,25.07c0.31-0.18,0.67-0.22,1.02-0.13  c0.36,0.1,0.67,0.35,0.88,0.74c0.17,0.28,0.22,0.67,0.13,0.99c-0.09,0.35-0.33,0.65-0.68,0.84l-3.19,1.79l-1.1-2.56L66.72,25.07z   M43.04,15.02h15.69l0.01,3.59c-0.92-0.29-1.92-0.26-2.85,0.11c-1.76,0.74-3.13,2.14-3.85,3.93c-0.73,1.81-0.71,3.79,0.07,5.59  l2.28,5.26l-11.38-6.71L43.04,15.02z M33.8,67.99l-10.22,5.85l-7.84-13.58l3.1-1.8c0.21,0.96,0.74,1.82,1.52,2.42  c1.25,0.94,2.75,1.43,4.29,1.43c0.35,0,0.71-0.02,1.07-0.08c1.92-0.28,3.61-1.29,4.76-2.84l0.55-0.74l2.85,1.68L33.8,67.99z   M22.38,57.25l1.9-2.56l3.69,2.17l-0.33,0.44c-0.58,0.79-1.45,1.3-2.43,1.45c-0.99,0.14-1.95-0.1-2.72-0.68  C22.35,57.98,22.26,57.77,22.38,57.25z M39.98,80.72c-0.01,0.78-0.65,1.41-1.33,1.41c-0.42-0.02-0.78-0.17-1.01-0.4  c-0.29-0.31-0.44-0.66-0.44-1.03l0.18-18.31L40.11,64L39.98,80.72z M47.87,83.58c-0.01,0.39-0.16,0.76-0.43,1.03  c-0.25,0.25-0.57,0.38-0.95,0.38c-0.41,0.04-0.78-0.14-1.04-0.4c-0.24-0.24-0.4-0.65-0.4-0.99l0.15-16.57l2.8,1.64L47.87,83.58z   M55.76,80.19c0,1.17-1.54,1.84-2.38,0.94c-0.23-0.23-0.38-0.63-0.4-0.96l0.08-9.05c0.91,0.28,1.84,0.49,2.79,0.57L55.76,80.19z   M63.72,76.77c0,0.36-0.14,0.69-0.39,0.95c-0.26,0.25-0.61,0.39-1.02,0.39c-0.36,0-0.75-0.14-1.01-0.4c-0.25-0.25-0.38-0.59-0.36-1  L61,71.19c0.44-0.12,0.9-0.19,1.33-0.35l1.45,0.83L63.72,76.77z M76.42,74.86l-10.08-5.78c-0.03-0.02-0.06-0.04-0.09-0.05  l-2.94-1.68c-0.49-0.28-1.08-0.31-1.59-0.08c-0.87,0.39-1.8,0.67-2.83,0.83c-0.41,0.08-0.83,0.11-1.34,0.11  c-1.93,0.06-3.81-0.36-5.65-1.35l-8.9-5.2c-0.08-0.07-0.16-0.13-0.25-0.18L20.43,48.34c-0.39-0.23-0.54-0.56-0.61-0.8  c-0.1-0.37-0.03-0.76,0.19-1.14c0.18-0.32,0.5-0.56,0.86-0.66c0.3-0.09,0.66-0.02,1.03,0.21l12.67,7.43  c0.08,0.07,0.17,0.13,0.26,0.18l2.64,1.52c0.58,0.43,1.32,0.58,2.02,0.43c0.7-0.16,1.3-0.62,1.55-1.09  c0.39-0.55,0.52-1.23,0.39-1.91c-0.14-0.7-0.56-1.32-1.22-1.74L21.45,39.71c-0.32-0.19-0.55-0.49-0.64-0.84  c-0.09-0.34-0.04-0.69,0.17-1.04c0.26-0.46,0.57-0.58,0.87-0.64c0.31-0.1,0.72-0.02,1.04,0.13L40.24,47.6  c0.57,0.34,1.29,0.43,1.95,0.26c0.68-0.18,1.26-0.63,1.57-1.19c0.35-0.59,0.44-1.3,0.26-1.96c-0.18-0.66-0.61-1.21-1.16-1.51  l-20.38-12c-0.34-0.21-0.58-0.53-0.67-0.91c-0.08-0.34-0.03-0.68,0.15-0.99c0.21-0.36,0.53-0.62,0.88-0.71  c0.3-0.08,0.71-0.02,1.04,0.17l20.35,11.98c0.59,0.37,1.31,0.49,1.98,0.32c0.67-0.17,1.26-0.62,1.57-1.19  c0.35-0.59,0.44-1.32,0.26-1.99c-0.18-0.67-0.61-1.22-1.16-1.51L28.88,25.78c-0.65-0.4-0.88-1.27-0.57-1.82  c0.25-0.38,0.57-0.62,0.85-0.7c0.45-0.1,0.85-0.05,1.16,0.11l24.66,14.55c0.06,0.04,0.12,0.07,0.19,0.09c0.01,0,0.02,0.01,0.03,0.01  l2.1,1.26c0.65,0.39,1.48,0.32,2.06-0.18c0.57-0.5,0.76-1.31,0.47-2.02l-4.48-10.26c-0.39-0.92-0.4-1.94-0.03-2.87  c0.37-0.92,1.06-1.62,1.92-1.99c0.2-0.07,0.42-0.06,0.8,0.31l0.81,1.83c0.02,0.07,0.04,0.13,0.07,0.2l4.15,9.65  c0.04,0.11,0.1,0.21,0.17,0.3l2.46,5.71c0,0,0,0.01,0,0.01c0,0,0,0,0,0l3.11,7.22c0.01,0.02,0.01,0.05,0.02,0.07  c0,0.01,0.01,0.01,0.02,0.02l0.47,1.1c0,0,0,0.01,0.01,0.01c0.02,0.06,0.04,0.12,0.06,0.16c0.39,0.87,0.88,2.25,1.06,3.88  c0.06,0.56,0.39,1.06,0.87,1.33l12.95,7.5L76.42,74.86z"/>
<!-- <text x="0" y="115" fill="#000000" font-size="5px" font-weight="bold" font-family="'Helvetica Neue', Helvetica, Arial-Unicode, Arial, Sans-serif">Created by ainul muttaqin</text><text x="0" y="120" fill="#000000" font-size="5px" font-weight="bold" font-family="'Helvetica Neue', Helvetica, Arial-Unicode, Arial, Sans-serif">from the Noun Project</text> -->
</svg>