<svg xmlns="http://www.w3.org/2000/svg" viewBox="0 0 64 80" x="0px" y="0px"><g><path d="M30,26h5a1,1,0,0,0,0-2H30a1,1,0,0,0,0,2Z"/><path d="M30,30h5a1,1,0,0,0,0-2H30a1,1,0,0,0,0,2Z"/><path d="M19,26h5a1,1,0,0,0,0-2H19a1,1,0,0,0,0,2Z"/><path d="M19,22h5a1,1,0,0,0,0-2H19a1,1,0,0,0,0,2Z"/><path d="M30,22h5a1,1,0,0,0,0-2H30a1,1,0,0,0,0,2Z"/><path d="M19,30h5a1,1,0,0,0,0-2H19a1,1,0,0,0,0,2Z"/><path d="M27,6A21,21,0,1,0,48,27,21.023,21.023,0,0,0,27,6Zm0,40A19,19,0,1,1,46,27,19.017,19.017,0,0,1,27,46Z"/><path d="M60.7,55.04,50.33,44.68l.71-.71a.99.99,0,0,0,.29-.71.967.967,0,0,0-.29-.7L48.4,39.91a25.02,25.02,0,1,0-8.49,8.49l2.65,2.64a1,1,0,0,0,1.41,0l.71-.71L55.04,60.7a4,4,0,0,0,5.66-5.66ZM27,50A23,23,0,1,1,50,27,23.029,23.029,0,0,1,27,50Zm16.97-1.79-.71.71-1.65-1.65a25.329,25.329,0,0,0,5.66-5.66l1.65,1.65-.7.71h-.01ZM59.28,59.28a2.029,2.029,0,0,1-2.82,0L46.09,48.92l2.83-2.83L59.28,56.46a1.98,1.98,0,0,1,0,2.82Z"/><path d="M41,18H39V17a1,1,0,0,0-1-1H30.66a4.981,4.981,0,0,0-3.46,1.39l-.22.21-.11-.12A5.054,5.054,0,0,0,23.32,16H16a1,1,0,0,0-1,1v1H13a1,1,0,0,0-1,1V36a1,1,0,0,0,1,1h9.79a2.973,2.973,0,0,1,1.7.53l1.87,1.29a.988.988,0,0,0,.57.18.972.972,0,0,0,.54-.16l2.15-1.37A3.024,3.024,0,0,1,31.24,37H41a1,1,0,0,0,1-1V19A1,1,0,0,0,41,18ZM28,19.39l.59-.56A3,3,0,0,1,30.66,18H37V31a1,1,0,0,1-1,1H30.73a4.981,4.981,0,0,0-2.73.83ZM17,18h6.32a3.005,3.005,0,0,1,2.13.89l.55.56V32.73A4.988,4.988,0,0,0,23.41,32H18a1,1,0,0,1-1-1ZM40,35H31.24a5.1,5.1,0,0,0-2.69.78l-1.6,1.02-1.32-.91A5.023,5.023,0,0,0,22.79,35H14V20h1V31a3.009,3.009,0,0,0,3,3h5.41a2.981,2.981,0,0,1,2.06.82l.96.91a1.011,1.011,0,0,0,.69.27h.02a1.009,1.009,0,0,0,.7-.31l.7-.75A3.018,3.018,0,0,1,30.73,34H36a3.009,3.009,0,0,0,3-3V20h1Z"/></g>
<!-- <text x="0" y="79" fill="#000000" font-size="5px" font-weight="bold" font-family="'Helvetica Neue', Helvetica, Arial-Unicode, Arial, Sans-serif">Created by Sarote Impheng</text><text x="0" y="84" fill="#000000" font-size="5px" font-weight="bold" font-family="'Helvetica Neue', Helvetica, Arial-Unicode, Arial, Sans-serif">from the Noun Project</text> -->
</svg>