<svg xmlns="http://www.w3.org/2000/svg" xmlns:xlink="http://www.w3.org/1999/xlink" version="1.1" x="0px" y="0px" viewBox="0 0 100 125" style="enable-background:new 0 0 100 100;" xml:space="preserve"><style type="text/css">
	.st0{fill:none;stroke:#000000;stroke-width:2;stroke-linecap:round;stroke-linejoin:round;stroke-miterlimit:10;}
	.st1{fill:none;stroke:#000000;stroke-width:2;stroke-miterlimit:10;}
</style><path d="M52.7,16l3.6-3.6c0.4-0.4,0.4-1,0-1.4s-1-0.4-1.4,0l-5.3,5.3c-0.4,0.4-0.4,1,0,1.4l5.3,5.3c0.2,0.2,0.5,0.3,0.7,0.3  s0.5-0.1,0.7-0.3c0.4-0.4,0.4-1,0-1.4L52.8,18c16.6,1.6,29.5,15.7,29.5,32.5c0,16.8-12.6,30.8-29.3,32.5c-0.5,0.1-0.9,0.5-0.9,1.1  c0.1,0.5,0.5,0.9,1,0.9c0,0,0.1,0,0.1,0C71,83.2,84.4,68.4,84.4,50.5C84.4,32.6,70.5,17.5,52.7,16z"/><path d="M44.4,78.1c-0.4-0.4-1-0.4-1.4,0s-0.4,1,0,1.4l3.5,3.5C29.9,81.4,17,67.2,17,50.5c0-16.8,12.6-30.8,29.3-32.5  c0.5-0.1,0.9-0.5,0.9-1.1c-0.1-0.5-0.6-0.9-1.1-0.9C28.4,17.8,15,32.6,15,50.5c0,17.9,13.9,33,31.7,34.5L43,88.6  c-0.4,0.4-0.4,1,0,1.4c0.2,0.2,0.5,0.3,0.7,0.3s0.5-0.1,0.7-0.3l5.3-5.3c0.4-0.4,0.4-1,0-1.4L44.4,78.1z"/>
<!-- <text x="0" y="115" fill="#000000" font-size="5px" font-weight="bold" font-family="'Helvetica Neue', Helvetica, Arial-Unicode, Arial, Sans-serif">Created by Made by Made</text><text x="0" y="120" fill="#000000" font-size="5px" font-weight="bold" font-family="'Helvetica Neue', Helvetica, Arial-Unicode, Arial, Sans-serif">from the Noun Project</text> -->
</svg>